<mxfile host="app.diagrams.net" modified="2020-06-02T17:09:01.477Z" agent="5.0 (Windows)" etag="Lw6fpdI7t9g0Dxtw3QMT" version="13.1.13" type="github">
  <diagram id="5YTd6HPiCCN_LFdmrXuX" name="Page-1">
    <mxGraphModel dx="937" dy="656" grid="1" gridSize="10" guides="1" tooltips="1" connect="1" arrows="1" fold="1" page="1" pageScale="1" pageWidth="827" pageHeight="1169" background="none" math="0" shadow="0">
      <root>
        <mxCell id="0" />
        <mxCell id="1" parent="0" />
        <mxCell id="4vxbuee-sdpMc3VaT_km-1" value="" style="rounded=0;whiteSpace=wrap;html=1;" parent="1" vertex="1">
          <mxGeometry x="200" y="320" width="440" height="240" as="geometry" />
        </mxCell>
        <mxCell id="4vxbuee-sdpMc3VaT_km-2" value="" style="verticalLabelPosition=bottom;html=1;verticalAlign=top;align=center;shape=mxgraph.floorplan.wall;fillColor=#000000;rotation=90;" parent="1" vertex="1">
          <mxGeometry x="176" y="435" width="50" height="10" as="geometry" />
        </mxCell>
        <mxCell id="4vxbuee-sdpMc3VaT_km-3" value="" style="verticalLabelPosition=bottom;html=1;verticalAlign=top;align=center;shape=mxgraph.floorplan.wall;fillColor=#000000;rotation=0;" parent="1" vertex="1">
          <mxGeometry x="270" y="316" width="50" height="10" as="geometry" />
        </mxCell>
        <mxCell id="4vxbuee-sdpMc3VaT_km-4" value="" style="rounded=0;whiteSpace=wrap;html=1;" parent="1" vertex="1">
          <mxGeometry x="198.87" y="775" width="440" height="240" as="geometry" />
        </mxCell>
        <mxCell id="4vxbuee-sdpMc3VaT_km-5" value="" style="verticalLabelPosition=bottom;html=1;verticalAlign=top;align=center;shape=mxgraph.floorplan.stairs;" parent="1" vertex="1">
          <mxGeometry x="298.87" y="955" width="114" height="60" as="geometry" />
        </mxCell>
        <mxCell id="4vxbuee-sdpMc3VaT_km-7" value="" style="verticalLabelPosition=bottom;html=1;verticalAlign=top;align=center;shape=mxgraph.floorplan.stairs;rotation=-180;" parent="1" vertex="1">
          <mxGeometry x="412.87" y="775" width="116.87" height="60" as="geometry" />
        </mxCell>
        <mxCell id="4vxbuee-sdpMc3VaT_km-8" value="" style="rounded=0;whiteSpace=wrap;html=1;strokeColor=#000000;fillColor=#000000;" parent="1" vertex="1">
          <mxGeometry x="368" y="320" width="46" height="100" as="geometry" />
        </mxCell>
        <mxCell id="4vxbuee-sdpMc3VaT_km-9" value="" style="verticalLabelPosition=bottom;html=1;verticalAlign=top;align=center;shape=mxgraph.floorplan.stairs;rotation=-180;" parent="1" vertex="1">
          <mxGeometry x="414" y="320" width="160" height="60" as="geometry" />
        </mxCell>
        <mxCell id="4vxbuee-sdpMc3VaT_km-10" value="" style="verticalLabelPosition=bottom;html=1;verticalAlign=top;align=center;shape=mxgraph.floorplan.stairs;" parent="1" vertex="1">
          <mxGeometry x="254" y="500" width="160" height="60" as="geometry" />
        </mxCell>
        <mxCell id="4vxbuee-sdpMc3VaT_km-17" value="z" style="triangle;whiteSpace=wrap;html=1;strokeColor=#000000;fillColor=#000000;rotation=135;" parent="1" vertex="1">
          <mxGeometry x="196" y="526.57" width="24.83" height="48.67" as="geometry" />
        </mxCell>
        <mxCell id="4vxbuee-sdpMc3VaT_km-18" value="" style="triangle;whiteSpace=wrap;html=1;strokeColor=#000000;fillColor=#000000;rotation=45;" parent="1" vertex="1">
          <mxGeometry x="618" y="527.0000000000001" width="24.83" height="48.67" as="geometry" />
        </mxCell>
        <mxCell id="4vxbuee-sdpMc3VaT_km-19" value="" style="verticalLabelPosition=bottom;html=1;verticalAlign=top;align=center;shape=mxgraph.floorplan.wall;fillColor=#000000;rotation=0;" parent="1" vertex="1">
          <mxGeometry x="531" y="554" width="50" height="10" as="geometry" />
        </mxCell>
        <mxCell id="4vxbuee-sdpMc3VaT_km-22" value="" style="endArrow=none;html=1;strokeWidth=2;entryX=0.983;entryY=-0.007;entryDx=0;entryDy=0;entryPerimeter=0;exitX=-0.012;exitY=-0.007;exitDx=0;exitDy=0;exitPerimeter=0;strokeColor=#FF3333;" parent="1" source="4vxbuee-sdpMc3VaT_km-7" target="4vxbuee-sdpMc3VaT_km-7" edge="1">
          <mxGeometry width="50" height="50" relative="1" as="geometry">
            <mxPoint x="468.9900000000001" y="835" as="sourcePoint" />
            <mxPoint x="468.87" y="955" as="targetPoint" />
          </mxGeometry>
        </mxCell>
        <mxCell id="4vxbuee-sdpMc3VaT_km-23" value="" style="endArrow=none;html=1;strokeWidth=2;exitX=-0.012;exitY=-0.007;exitDx=0;exitDy=0;exitPerimeter=0;strokeColor=#FF3333;" parent="1" edge="1">
          <mxGeometry width="50" height="50" relative="1" as="geometry">
            <mxPoint x="412.44800000000004" y="955.0000000000001" as="sourcePoint" />
            <mxPoint x="298.87" y="955" as="targetPoint" />
          </mxGeometry>
        </mxCell>
        <mxCell id="4vxbuee-sdpMc3VaT_km-24" value="" style="endArrow=none;html=1;strokeWidth=2;entryX=0.983;entryY=-0.007;entryDx=0;entryDy=0;entryPerimeter=0;strokeColor=#FF3333;" parent="1" edge="1">
          <mxGeometry width="50" height="50" relative="1" as="geometry">
            <mxPoint x="531.58" y="835" as="sourcePoint" />
            <mxPoint x="530.9979999999999" y="775" as="targetPoint" />
          </mxGeometry>
        </mxCell>
        <mxCell id="4vxbuee-sdpMc3VaT_km-26" value="" style="endArrow=none;html=1;strokeWidth=2;strokeColor=#FF3333;" parent="1" edge="1">
          <mxGeometry width="50" height="50" relative="1" as="geometry">
            <mxPoint x="298.87000000000006" y="1015" as="sourcePoint" />
            <mxPoint x="299.29" y="955" as="targetPoint" />
          </mxGeometry>
        </mxCell>
        <mxCell id="4vxbuee-sdpMc3VaT_km-30" value="" style="verticalLabelPosition=bottom;html=1;verticalAlign=top;align=center;shape=mxgraph.floorplan.stairs;rotation=90;" parent="1" vertex="1">
          <mxGeometry x="252.12" y="904.25" width="46" height="47.5" as="geometry" />
        </mxCell>
        <mxCell id="4vxbuee-sdpMc3VaT_km-32" value="" style="verticalLabelPosition=bottom;html=1;verticalAlign=top;align=center;shape=mxgraph.floorplan.stairs;rotation=270;" parent="1" vertex="1">
          <mxGeometry x="553.87" y="880" width="121" height="49" as="geometry" />
        </mxCell>
        <mxCell id="4vxbuee-sdpMc3VaT_km-33" value="z" style="triangle;whiteSpace=wrap;html=1;strokeColor=#000000;fillColor=#000000;rotation=135;" parent="1" vertex="1">
          <mxGeometry x="195.87" y="981" width="24.83" height="48.67" as="geometry" />
        </mxCell>
        <mxCell id="4vxbuee-sdpMc3VaT_km-34" value="" style="triangle;whiteSpace=wrap;html=1;strokeColor=#000000;fillColor=#000000;rotation=45;" parent="1" vertex="1">
          <mxGeometry x="617.87" y="982.0000000000001" width="24.83" height="48.67" as="geometry" />
        </mxCell>
        <mxCell id="4vxbuee-sdpMc3VaT_km-36" value="" style="verticalLabelPosition=bottom;html=1;verticalAlign=top;align=center;shape=mxgraph.floorplan.wall;fillColor=#007FFF;rotation=0;" parent="1" vertex="1">
          <mxGeometry x="208.87" y="770" width="50" height="10" as="geometry" />
        </mxCell>
        <mxCell id="4vxbuee-sdpMc3VaT_km-38" value="" style="verticalLabelPosition=bottom;html=1;verticalAlign=top;align=center;shape=mxgraph.floorplan.wall;fillColor=#007FFF;rotation=0;" parent="1" vertex="1">
          <mxGeometry x="307.87" y="770" width="50" height="10" as="geometry" />
        </mxCell>
        <mxCell id="4vxbuee-sdpMc3VaT_km-39" value="" style="verticalLabelPosition=bottom;html=1;verticalAlign=top;align=center;shape=mxgraph.floorplan.stairs;rotation=270;" parent="1" vertex="1">
          <mxGeometry x="165.12" y="868.75" width="121" height="51.5" as="geometry" />
        </mxCell>
        <mxCell id="4vxbuee-sdpMc3VaT_km-40" value="" style="endArrow=none;html=1;strokeWidth=2;exitX=-0.002;exitY=1.028;exitDx=0;exitDy=0;exitPerimeter=0;strokeColor=#FF3333;" parent="1" source="4vxbuee-sdpMc3VaT_km-39" edge="1">
          <mxGeometry width="50" height="50" relative="1" as="geometry">
            <mxPoint x="365.698" y="835" as="sourcePoint" />
            <mxPoint x="251.87" y="834" as="targetPoint" />
            <Array as="points">
              <mxPoint x="251.87" y="834" />
            </Array>
          </mxGeometry>
        </mxCell>
        <mxCell id="4vxbuee-sdpMc3VaT_km-41" value="" style="endArrow=none;html=1;strokeWidth=2;strokeColor=#FF3333;exitX=0.997;exitY=1.014;exitDx=0;exitDy=0;exitPerimeter=0;" parent="1" source="4vxbuee-sdpMc3VaT_km-39" edge="1">
          <mxGeometry width="50" height="50" relative="1" as="geometry">
            <mxPoint x="248.87" y="835" as="sourcePoint" />
            <mxPoint x="198.87" y="835" as="targetPoint" />
          </mxGeometry>
        </mxCell>
        <mxCell id="4vxbuee-sdpMc3VaT_km-42" value="" style="verticalLabelPosition=bottom;html=1;verticalAlign=top;align=center;shape=mxgraph.floorplan.stairs;rotation=-180;" parent="1" vertex="1">
          <mxGeometry x="549.87" y="966" width="40" height="49" as="geometry" />
        </mxCell>
        <mxCell id="4vxbuee-sdpMc3VaT_km-43" value="" style="endArrow=none;html=1;strokeWidth=2;strokeColor=#FF3333;" parent="1" edge="1">
          <mxGeometry width="50" height="50" relative="1" as="geometry">
            <mxPoint x="412.99" y="835.0000000000001" as="sourcePoint" />
            <mxPoint x="412.87" y="955.0000000000001" as="targetPoint" />
          </mxGeometry>
        </mxCell>
        <mxCell id="4vxbuee-sdpMc3VaT_km-20" value="" style="endArrow=none;html=1;strokeWidth=2;strokeColor=#FF3333;" parent="1" edge="1">
          <mxGeometry width="50" height="50" relative="1" as="geometry">
            <mxPoint x="589.99" y="844.5" as="sourcePoint" />
            <mxPoint x="589.87" y="964.5" as="targetPoint" />
          </mxGeometry>
        </mxCell>
        <mxCell id="4vxbuee-sdpMc3VaT_km-44" value="" style="endArrow=none;html=1;strokeWidth=2;strokeColor=#FF3333;exitX=0.999;exitY=0.978;exitDx=0;exitDy=0;exitPerimeter=0;" parent="1" source="4vxbuee-sdpMc3VaT_km-32" edge="1">
          <mxGeometry width="50" height="50" relative="1" as="geometry">
            <mxPoint x="638.091" y="843.0029999999999" as="sourcePoint" />
            <mxPoint x="588.87" y="844" as="targetPoint" />
          </mxGeometry>
        </mxCell>
        <mxCell id="4vxbuee-sdpMc3VaT_km-47" value="" style="verticalLabelPosition=bottom;html=1;verticalAlign=top;align=center;shape=mxgraph.floorplan.wall;fillColor=#000000;rotation=90;" parent="1" vertex="1">
          <mxGeometry x="387.87" y="889.5" width="50" height="10" as="geometry" />
        </mxCell>
        <mxCell id="yVRYnLURutYKrNPXLrog-1" value="" style="rounded=0;whiteSpace=wrap;html=1;" vertex="1" parent="1">
          <mxGeometry x="380" y="680" width="259" height="95" as="geometry" />
        </mxCell>
        <mxCell id="yVRYnLURutYKrNPXLrog-2" value="" style="verticalLabelPosition=bottom;html=1;verticalAlign=top;align=center;shape=mxgraph.floorplan.wall;fillColor=#000000;rotation=0;" vertex="1" parent="1">
          <mxGeometry x="539.87" y="770" width="50" height="10" as="geometry" />
        </mxCell>
        <mxCell id="yVRYnLURutYKrNPXLrog-3" value="" style="rounded=0;whiteSpace=wrap;html=1;" vertex="1" parent="1">
          <mxGeometry x="764" y="319.57" width="440" height="240" as="geometry" />
        </mxCell>
        <mxCell id="yVRYnLURutYKrNPXLrog-9" value="z" style="triangle;whiteSpace=wrap;html=1;strokeColor=#000000;fillColor=#000000;rotation=135;" vertex="1" parent="1">
          <mxGeometry x="760" y="526.1400000000001" width="24.83" height="48.67" as="geometry" />
        </mxCell>
        <mxCell id="yVRYnLURutYKrNPXLrog-10" value="" style="triangle;whiteSpace=wrap;html=1;strokeColor=#000000;fillColor=#000000;rotation=45;" vertex="1" parent="1">
          <mxGeometry x="1182" y="526.5700000000002" width="24.83" height="48.67" as="geometry" />
        </mxCell>
        <mxCell id="yVRYnLURutYKrNPXLrog-12" value="" style="verticalLabelPosition=bottom;html=1;verticalAlign=top;align=center;shape=mxgraph.floorplan.stairs;rotation=270;" vertex="1" parent="1">
          <mxGeometry x="1120" y="420" width="121" height="49" as="geometry" />
        </mxCell>
        <mxCell id="yVRYnLURutYKrNPXLrog-13" value="" style="verticalLabelPosition=bottom;html=1;verticalAlign=top;align=center;shape=mxgraph.floorplan.stairs;rotation=270;" vertex="1" parent="1">
          <mxGeometry x="730" y="420" width="121" height="51.5" as="geometry" />
        </mxCell>
        <mxCell id="yVRYnLURutYKrNPXLrog-15" value="" style="endArrow=none;html=1;strokeWidth=2;entryX=0.983;entryY=-0.007;entryDx=0;entryDy=0;entryPerimeter=0;strokeColor=#FF3333;" edge="1" parent="1">
          <mxGeometry width="50" height="50" relative="1" as="geometry">
            <mxPoint x="830" y="694" as="sourcePoint" />
            <mxPoint x="809.998" y="694" as="targetPoint" />
          </mxGeometry>
        </mxCell>
        <mxCell id="yVRYnLURutYKrNPXLrog-16" value="&lt;div&gt;Indoorr Walls&lt;/div&gt;" style="text;html=1;strokeColor=none;fillColor=none;align=center;verticalAlign=middle;whiteSpace=wrap;rounded=0;" vertex="1" parent="1">
          <mxGeometry x="829" y="680" width="83" height="20" as="geometry" />
        </mxCell>
        <mxCell id="yVRYnLURutYKrNPXLrog-17" value="" style="whiteSpace=wrap;html=1;aspect=fixed;strokeColor=#b85450;fillColor=#f8cecc;" vertex="1" parent="1">
          <mxGeometry x="809" y="710" width="20" height="20" as="geometry" />
        </mxCell>
        <mxCell id="yVRYnLURutYKrNPXLrog-18" value="Dangerzone" style="text;html=1;strokeColor=none;fillColor=none;align=center;verticalAlign=middle;whiteSpace=wrap;rounded=0;" vertex="1" parent="1">
          <mxGeometry x="829" y="710" width="80" height="20" as="geometry" />
        </mxCell>
        <mxCell id="yVRYnLURutYKrNPXLrog-19" value="" style="whiteSpace=wrap;html=1;aspect=fixed;strokeColor=#6c8ebf;fillColor=#dae8fc;" vertex="1" parent="1">
          <mxGeometry x="809" y="739" width="20" height="20" as="geometry" />
        </mxCell>
        <mxCell id="yVRYnLURutYKrNPXLrog-20" value="Safezone" style="text;html=1;strokeColor=none;fillColor=none;align=center;verticalAlign=middle;whiteSpace=wrap;rounded=0;" vertex="1" parent="1">
          <mxGeometry x="829" y="740" width="80" height="19" as="geometry" />
        </mxCell>
        <mxCell id="yVRYnLURutYKrNPXLrog-21" value="" style="whiteSpace=wrap;html=1;aspect=fixed;strokeColor=#82b366;fillColor=#d5e8d4;" vertex="1" parent="1">
          <mxGeometry x="809" y="770" width="20" height="20" as="geometry" />
        </mxCell>
        <mxCell id="yVRYnLURutYKrNPXLrog-22" value="Mediczone" style="text;html=1;strokeColor=none;fillColor=none;align=center;verticalAlign=middle;whiteSpace=wrap;rounded=0;" vertex="1" parent="1">
          <mxGeometry x="829" y="770" width="80" height="20" as="geometry" />
        </mxCell>
        <mxCell id="yVRYnLURutYKrNPXLrog-24" value="" style="rounded=1;whiteSpace=wrap;html=1;fillColor=#d5e8d4;strokeColor=#82b366;" vertex="1" parent="1">
          <mxGeometry x="470" y="868.75" width="79.87" height="71" as="geometry" />
        </mxCell>
        <mxCell id="yVRYnLURutYKrNPXLrog-25" value="" style="rounded=1;whiteSpace=wrap;html=1;fillColor=#d5e8d4;strokeColor=#82b366;" vertex="1" parent="1">
          <mxGeometry x="290" y="840" width="70" height="64.25" as="geometry" />
        </mxCell>
        <mxCell id="yVRYnLURutYKrNPXLrog-26" value="" style="rounded=1;whiteSpace=wrap;html=1;fillColor=#f8cecc;strokeColor=#b85450;" vertex="1" parent="1">
          <mxGeometry x="380" y="775" width="32" height="60" as="geometry" />
        </mxCell>
        <mxCell id="yVRYnLURutYKrNPXLrog-28" value="" style="rounded=1;whiteSpace=wrap;html=1;fillColor=#dae8fc;strokeColor=#6c8ebf;" vertex="1" parent="1">
          <mxGeometry x="250" y="955" width="46" height="60" as="geometry" />
        </mxCell>
        <mxCell id="yVRYnLURutYKrNPXLrog-29" value="" style="rounded=1;whiteSpace=wrap;html=1;fillColor=#f8cecc;strokeColor=#b85450;" vertex="1" parent="1">
          <mxGeometry x="414" y="955" width="32" height="60" as="geometry" />
        </mxCell>
        <mxCell id="yVRYnLURutYKrNPXLrog-30" value="" style="rounded=1;whiteSpace=wrap;html=1;fillColor=#dae8fc;strokeColor=#6c8ebf;" vertex="1" parent="1">
          <mxGeometry x="368" y="851.75" width="40" height="100" as="geometry" />
        </mxCell>
        <mxCell id="yVRYnLURutYKrNPXLrog-31" value="" style="rounded=1;whiteSpace=wrap;html=1;fillColor=#dae8fc;strokeColor=#6c8ebf;" vertex="1" parent="1">
          <mxGeometry x="421" y="840" width="40" height="100" as="geometry" />
        </mxCell>
        <mxCell id="yVRYnLURutYKrNPXLrog-32" value="" style="verticalLabelPosition=bottom;html=1;verticalAlign=top;align=center;shape=mxgraph.floorplan.wall;fillColor=#007FFF;rotation=0;" vertex="1" parent="1">
          <mxGeometry x="470" y="1010" width="50" height="10" as="geometry" />
        </mxCell>
        <mxCell id="yVRYnLURutYKrNPXLrog-33" value="&lt;font style=&quot;font-size: 16px&quot;&gt;Ground Floor&lt;/font&gt;" style="text;html=1;strokeColor=none;fillColor=none;align=center;verticalAlign=middle;whiteSpace=wrap;rounded=0;" vertex="1" parent="1">
          <mxGeometry x="368" y="270" width="112" height="40" as="geometry" />
        </mxCell>
        <mxCell id="yVRYnLURutYKrNPXLrog-34" value="&lt;font style=&quot;font-size: 16px&quot;&gt;Roof&lt;/font&gt;" style="text;html=1;strokeColor=none;fillColor=none;align=center;verticalAlign=middle;whiteSpace=wrap;rounded=0;" vertex="1" parent="1">
          <mxGeometry x="928" y="270" width="112" height="40" as="geometry" />
        </mxCell>
        <mxCell id="yVRYnLURutYKrNPXLrog-35" value="&lt;font style=&quot;font-size: 16px&quot;&gt;1st Floor&lt;/font&gt;" style="text;html=1;strokeColor=none;fillColor=none;align=center;verticalAlign=middle;whiteSpace=wrap;rounded=0;" vertex="1" parent="1">
          <mxGeometry x="239" y="710" width="112" height="40" as="geometry" />
        </mxCell>
        <mxCell id="yVRYnLURutYKrNPXLrog-36" value="" style="rounded=1;whiteSpace=wrap;html=1;fillColor=#f8cecc;strokeColor=#b85450;" vertex="1" parent="1">
          <mxGeometry x="205.87" y="785" width="53" height="40" as="geometry" />
        </mxCell>
        <mxCell id="yVRYnLURutYKrNPXLrog-37" value="" style="rounded=1;whiteSpace=wrap;html=1;fillColor=#f8cecc;strokeColor=#b85450;" vertex="1" parent="1">
          <mxGeometry x="600" y="780" width="34" height="60" as="geometry" />
        </mxCell>
        <mxCell id="yVRYnLURutYKrNPXLrog-38" value="&lt;font style=&quot;font-size: 25px&quot;&gt;Base Design: Triple Stack &lt;/font&gt;" style="text;html=1;strokeColor=none;fillColor=none;align=center;verticalAlign=middle;whiteSpace=wrap;rounded=0;" vertex="1" parent="1">
          <mxGeometry x="490" y="130" width="390" height="40" as="geometry" />
        </mxCell>
        <mxCell id="yVRYnLURutYKrNPXLrog-39" value="&lt;div&gt;Closed&lt;/div&gt;&lt;div&gt;Room&lt;br&gt;&lt;/div&gt;" style="text;html=1;strokeColor=none;fillColor=none;align=center;verticalAlign=middle;whiteSpace=wrap;rounded=0;" vertex="1" parent="1">
          <mxGeometry x="272.87" y="869.5" width="85" height="20" as="geometry" />
        </mxCell>
        <mxCell id="yVRYnLURutYKrNPXLrog-40" value="&lt;div&gt;Open&lt;/div&gt;&lt;div&gt;Room&lt;br&gt;&lt;/div&gt;" style="text;html=1;strokeColor=none;fillColor=none;align=center;verticalAlign=middle;whiteSpace=wrap;rounded=0;" vertex="1" parent="1">
          <mxGeometry x="464.87" y="894.5" width="85" height="20" as="geometry" />
        </mxCell>
        <mxCell id="yVRYnLURutYKrNPXLrog-41" value="Balcony" style="text;html=1;strokeColor=none;fillColor=none;align=center;verticalAlign=middle;whiteSpace=wrap;rounded=0;" vertex="1" parent="1">
          <mxGeometry x="451.5" y="719" width="85" height="20" as="geometry" />
        </mxCell>
        <mxCell id="yVRYnLURutYKrNPXLrog-43" style="edgeStyle=orthogonalEdgeStyle;rounded=0;orthogonalLoop=1;jettySize=auto;html=1;entryX=0.597;entryY=0.983;entryDx=0;entryDy=0;entryPerimeter=0;" edge="1" parent="1" source="yVRYnLURutYKrNPXLrog-42" target="4vxbuee-sdpMc3VaT_km-7">
          <mxGeometry relative="1" as="geometry" />
        </mxCell>
        <mxCell id="yVRYnLURutYKrNPXLrog-42" value="Closed Stairs" style="text;html=1;strokeColor=none;fillColor=none;align=center;verticalAlign=middle;whiteSpace=wrap;rounded=0;" vertex="1" parent="1">
          <mxGeometry x="389" y="710" width="72" height="20" as="geometry" />
        </mxCell>
        <mxCell id="yVRYnLURutYKrNPXLrog-45" style="edgeStyle=orthogonalEdgeStyle;rounded=0;orthogonalLoop=1;jettySize=auto;html=1;" edge="1" parent="1" source="yVRYnLURutYKrNPXLrog-44" target="4vxbuee-sdpMc3VaT_km-5">
          <mxGeometry relative="1" as="geometry">
            <mxPoint x="334.8699999999999" y="1020" as="targetPoint" />
          </mxGeometry>
        </mxCell>
        <mxCell id="yVRYnLURutYKrNPXLrog-44" value="Open Stairs" style="text;html=1;strokeColor=none;fillColor=none;align=center;verticalAlign=middle;whiteSpace=wrap;rounded=0;" vertex="1" parent="1">
          <mxGeometry x="298.87" y="1060" width="72" height="20" as="geometry" />
        </mxCell>
        <mxCell id="yVRYnLURutYKrNPXLrog-47" style="edgeStyle=orthogonalEdgeStyle;rounded=0;orthogonalLoop=1;jettySize=auto;html=1;entryX=0.41;entryY=0.007;entryDx=0;entryDy=0;entryPerimeter=0;" edge="1" parent="1" source="yVRYnLURutYKrNPXLrog-46" target="4vxbuee-sdpMc3VaT_km-39">
          <mxGeometry relative="1" as="geometry" />
        </mxCell>
        <mxCell id="yVRYnLURutYKrNPXLrog-46" value="Closed Roof" style="text;html=1;strokeColor=none;fillColor=none;align=center;verticalAlign=middle;whiteSpace=wrap;rounded=0;" vertex="1" parent="1">
          <mxGeometry x="80" y="900.25" width="72" height="20" as="geometry" />
        </mxCell>
        <mxCell id="yVRYnLURutYKrNPXLrog-49" style="edgeStyle=orthogonalEdgeStyle;rounded=0;orthogonalLoop=1;jettySize=auto;html=1;" edge="1" parent="1" source="yVRYnLURutYKrNPXLrog-48">
          <mxGeometry relative="1" as="geometry">
            <mxPoint x="640" y="904.5" as="targetPoint" />
          </mxGeometry>
        </mxCell>
        <mxCell id="yVRYnLURutYKrNPXLrog-48" value="Open Roof" style="text;html=1;strokeColor=none;fillColor=none;align=center;verticalAlign=middle;whiteSpace=wrap;rounded=0;" vertex="1" parent="1">
          <mxGeometry x="674.87" y="894.5" width="72" height="20" as="geometry" />
        </mxCell>
      </root>
    </mxGraphModel>
  </diagram>
</mxfile>
